<svg viewBox="0 0 20 20" xmlns="http://www.w3.org/2000/svg"><path fill='#fff' fill-rule="evenodd" clip-rule="evenodd" d="M2.654 5.714c0-.997 0-1.496.14-1.897A2.5 2.5 0 0 1 4.33 2.283c.4-.14.9-.14 1.897-.14s1.496 0 1.897.14a2.5 2.5 0 0 1 1.534 1.534c.14.401.14.9.14 1.897 0 .998 0 1.496-.14 1.897a2.5 2.5 0 0 1-1.534 1.534c-.401.14-.9.14-1.897.14-.998 0-1.496 0-1.897-.14a2.5 2.5 0 0 1-1.534-1.534c-.14-.4-.14-.9-.14-1.897Zm1.429-.428c0-.6 0-.9.117-1.13.102-.201.266-.365.468-.468.23-.117.53-.117 1.13-.117h.856c.6 0 .9 0 1.13.117.201.103.365.267.468.468.117.23.117.53.117 1.13v.857c0 .6 0 .9-.117 1.13a1.071 1.071 0 0 1-.468.467c-.23.117-.53.117-1.13.117h-.857c-.6 0-.9 0-1.129-.117a1.071 1.071 0 0 1-.468-.468c-.117-.23-.117-.53-.117-1.13v-.856Zm-1.429 9c0-.998 0-1.496.14-1.897a2.5 2.5 0 0 1 1.535-1.534c.4-.14.9-.14 1.897-.14s1.496 0 1.897.14a2.5 2.5 0 0 1 1.534 1.534c.14.4.14.9.14 1.897s0 1.496-.14 1.897a2.5 2.5 0 0 1-1.534 1.534c-.401.14-.9.14-1.897.14-.998 0-1.496 0-1.897-.14a2.5 2.5 0 0 1-1.534-1.534c-.14-.401-.14-.9-.14-1.897Zm1.429-.429c0-.6 0-.9.117-1.13.102-.2.266-.365.468-.467.23-.117.53-.117 1.13-.117h.856c.6 0 .9 0 1.13.117.201.102.365.266.468.468.117.229.117.53.117 1.13v.856c0 .6 0 .9-.117 1.13a1.072 1.072 0 0 1-.468.468c-.23.116-.53.116-1.13.116h-.857c-.6 0-.9 0-1.129-.116a1.072 1.072 0 0 1-.468-.469c-.117-.229-.117-.529-.117-1.129v-.857Zm7.283-10.04c-.14.401-.14.9-.14 1.897 0 .998 0 1.496.14 1.897A2.5 2.5 0 0 0 12.9 9.145c.401.14.9.14 1.897.14.998 0 1.497 0 1.897-.14a2.5 2.5 0 0 0 1.534-1.534c.14-.4.14-.9.14-1.897s0-1.496-.14-1.897a2.5 2.5 0 0 0-1.534-1.534c-.4-.14-.9-.14-1.897-.14s-1.496 0-1.897.14a2.5 2.5 0 0 0-1.534 1.534Zm1.405.34c-.117.229-.117.529-.117 1.129v.857c0 .6 0 .9.117 1.13.103.2.267.365.468.467.23.117.53.117 1.13.117h.857c.6 0 .9 0 1.13-.117.2-.102.365-.266.467-.468.117-.23.117-.53.117-1.13v-.856c0-.6 0-.9-.117-1.13a1.072 1.072 0 0 0-.468-.468c-.23-.117-.53-.117-1.13-.117h-.856c-.6 0-.9 0-1.13.117a1.071 1.071 0 0 0-.468.468Zm-1.545 10.129c0-.998 0-1.496.14-1.897a2.5 2.5 0 0 1 1.534-1.534c.401-.14.9-.14 1.897-.14.998 0 1.497 0 1.897.14a2.5 2.5 0 0 1 1.534 1.534c.14.4.14.9.14 1.897s0 1.496-.14 1.897a2.5 2.5 0 0 1-1.534 1.534c-.4.14-.9.14-1.897.14s-1.496 0-1.897-.14a2.5 2.5 0 0 1-1.534-1.534c-.14-.401-.14-.9-.14-1.897Zm1.428-.429c0-.6 0-.9.117-1.13.103-.2.267-.365.468-.467.23-.117.53-.117 1.13-.117h.857c.6 0 .9 0 1.13.117.2.102.365.266.467.468.117.229.117.53.117 1.13v.856c0 .6 0 .9-.117 1.13a1.073 1.073 0 0 1-.468.468c-.23.116-.53.116-1.13.116h-.856c-.6 0-.9 0-1.13-.116a1.072 1.072 0 0 1-.468-.469c-.117-.229-.117-.529-.117-1.129v-.857Z"></path></svg>